<svg xmlns="http://www.w3.org/2000/svg" xmlns:xlink="http://www.w3.org/1999/xlink" id="Layer_1" x="0px" y="0px" viewBox="0 0 47.3 55.1" style="enable-background:new 0 0 47.3 55.1;" xml:space="preserve"><style type="text/css">	.st0{fill:#0F173C;}</style><path class="st0" d="M46.1,49.9l-6.1-28c-0.3-1.4-1.5-2.4-2.9-2.4H10.3c-1.4,0-2.6,1-2.9,2.4l-6.1,28c-0.2,0.9,0,1.8,0.6,2.5 c0.6,0.7,1.4,1.1,2.3,1.1h39c0.9,0,1.8-0.4,2.3-1.1C46,51.7,46.3,50.8,46.1,49.9z M43.9,51.1c-0.2,0.2-0.5,0.4-0.8,0.4h-39 c-0.3,0-0.6-0.1-0.8-0.4c-0.2-0.2-0.3-0.5-0.2-0.8l6.1-28c0.1-0.5,0.5-0.8,1-0.8H37c0.5,0,0.9,0.3,1,0.8l6.1,28 C44.2,50.6,44.1,50.9,43.9,51.1z"></path><path class="st0" d="M10.6,15.5h26c5,0,9-4,9-9v-4c0-0.6-0.4-1-1-1h-42c-0.6,0-1,0.4-1,1v4C1.6,11.5,5.7,15.5,10.6,15.5z M3.6,3.5 h40v3c0,3.9-3.1,7-7,7h-26c-3.9,0-7-3.1-7-7V3.5z"></path><path class="st0" d="M23.6,25.5c-6.1,0-11,4.9-11,11s4.9,11,11,11s11-4.9,11-11S29.7,25.5,23.6,25.5z M23.6,45.5c-5,0-9-4-9-9 s4-9,9-9s9,4,9,9S28.6,45.5,23.6,45.5z"></path><path class="st0" d="M24.6,33.7v-3.2c0-0.6-0.4-1-1-1s-1,0.4-1,1v3.2c-1.6,0.6-2.4,2.3-1.8,3.8c0.6,1.6,2.3,2.4,3.8,1.8 c1.6-0.6,2.4-2.3,1.8-3.8C26.2,34.7,25.5,34,24.6,33.7z M23.6,37.5c-0.6,0-1-0.4-1-1s0.4-1,1-1s1,0.4,1,1S24.2,37.5,23.6,37.5z"></path><path class="st0" d="M8.6,7.5h30c0.6,0,1-0.4,1-1s-0.4-1-1-1h-30c-0.6,0-1,0.4-1,1S8.1,7.5,8.6,7.5z"></path></svg>