<svg xmlns="http://www.w3.org/2000/svg" xmlns:xlink="http://www.w3.org/1999/xlink" id="Layer_1" x="0px" y="0px" viewBox="0 0 100 100" style="enable-background:new 0 0 100 100;" xml:space="preserve"><style type="text/css">	.st0{fill:#0F173C;}</style><path class="st0" d="M39.9,59.4l-13.3-15c-2-2.4-5.6-2.7-7.9-0.7c-0.3,0.3-0.6,0.6-0.9,0.9l-4.7-13.5V31c-1.2-2.7-4.4-3.9-7.1-2.7 c-2.6,1.2-3.9,4.2-2.8,6.9l8.1,27.6c0.1,0.2,0.2,0.4,0.3,0.5l16.1,16.1v16.2c0,0.7,0.6,1.2,1.2,1.2c0.7,0,1.2-0.6,1.2-1.2V79 c0-0.3-0.1-0.6-0.4-0.9L13.5,61.8l-8-27.3c0-0.1,0-0.1-0.1-0.1c-0.6-1.5,0.1-3.2,1.5-3.8c1.4-0.6,3.1,0,3.8,1.4l6.2,18 c0,0.1,0.1,0.2,0.1,0.3c0.2,0.5,0.5,1,0.9,1.5l10.1,12c0.5,0.5,1.2,0.6,1.8,0.1c0.5-0.4,0.6-1.2,0.1-1.7l-10.1-12 c-1.1-1.3-1-3.3,0.4-4.4c1.3-1.1,3.3-1,4.4,0.4l0,0l13.3,15c0.1,0.1,6.2,7,6.2,17.9v16.7c0,0.7,0.6,1.2,1.2,1.2 c0.7,0,1.2-0.6,1.2-1.2V79C46.8,67.1,40.2,59.7,39.9,59.4z"></path><path class="st0" d="M96.4,31.2c-1.1-2.8-4.2-4.1-7-3c-1.3,0.5-2.4,1.6-3,2.9v0.1l-4.7,13.5c-1.9-2.5-5.4-3-7.9-1.2 c-0.3,0.3-0.7,0.6-0.9,0.9l-13.3,15c-0.3,0.3-6.9,7.7-6.9,19.6v16.7c0,0.7,0.6,1.2,1.2,1.2c0.7,0,1.2-0.6,1.2-1.2V79 c0-10.9,6.2-17.8,6.2-17.9l13.3-15l0,0c1.1-1.3,3.1-1.5,4.4-0.4s1.5,3.1,0.4,4.4l-10.1,12c-0.5,0.5-0.4,1.3,0.1,1.8 c0.5,0.5,1.3,0.4,1.8-0.1l0,0l10.1-12c0.4-0.4,0.7-0.9,0.9-1.5c0.1-0.1,0.1-0.2,0.1-0.3l6.2-18c0.7-1.5,2.4-2.1,3.8-1.5 c1.5,0.7,2.1,2.4,1.5,3.8l0,0c0,0,0,0.1-0.1,0.1l-8,27.3l-16,16.4c-0.2,0.2-0.4,0.6-0.4,0.9v16.7c0,0.7,0.6,1.2,1.2,1.2 s1.2-0.6,1.2-1.2V79.5l16.1-16.1c0.1-0.1,0.3-0.3,0.3-0.5l8.1-27.6C96.9,34,96.9,32.5,96.4,31.2z"></path><path class="st0" d="M68.4,19.7c-0.1-0.6-0.6-1.1-1.2-1.1c-9.2,0-13.8,4.3-16.2,8.5v-5.5c0-0.1,0-0.2,0-0.3 C50.8,8.9,42.8,4.9,38,3.6c-1.4-0.4-2.8-0.6-4.2-0.7c-2-0.1-2.5,0-2.8,0.6c-0.1,0.2-0.2,0.4-0.2,0.7c0,6.5,1.9,11.4,5.5,14.6 c4.1,3.6,9.2,4.1,11.9,4.1h0.3V36c0,0.5,0,1,0,1.5v24.8c0,0.7,0.6,1.2,1.2,1.2c0.7,0,1.2-0.6,1.2-1.2l0,0V38.7 c5.9-0.2,10.4-2.1,13.4-5.5C69.3,27.7,68.4,20,68.4,19.7z M37.9,16.9c-2.9-2.5-4.4-6.4-4.6-11.5c2.2,0.1,6.9,0.8,10.5,4 c2.9,2.6,4.4,6.3,4.7,11.1C46.3,20.4,41.5,20.1,37.9,16.9z M62.5,31.6C60,34.5,56.1,36,51,36.2V36c0.1-2.3,0.9-6.8,4-10.2 c2.6-2.9,6.3-4.5,11.1-4.7C66,23.3,65.7,28,62.5,31.6z"></path></svg>