<svg xmlns="http://www.w3.org/2000/svg" xmlns:xlink="http://www.w3.org/1999/xlink" id="Layer_1" x="0px" y="0px" viewBox="0 0 488 449" style="enable-background:new 0 0 488 449;" xml:space="preserve"><style type="text/css">	.st0{fill:#0F173C;}</style><g>	<path class="st0" d="M481,129.4c0-0.1,0-0.2,0-0.3c-0.1-0.3-0.1-0.6-0.2-0.9c0,0,0,0,0-0.1c-0.1-0.3-0.3-0.6-0.4-0.9  c0-0.1-0.1-0.2-0.1-0.2c-0.1-0.3-0.3-0.5-0.5-0.7l-0.1-0.1c-0.2-0.3-0.4-0.5-0.7-0.7c-0.1-0.1-0.1-0.1-0.2-0.2s-0.2-0.2-0.3-0.2  c-0.1-0.1-0.2-0.2-0.4-0.3c-0.1,0-0.1-0.1-0.2-0.1c-0.3-0.2-0.6-0.3-0.9-0.5c-0.1,0-0.1-0.1-0.2-0.1c-0.3-0.1-0.6-0.2-0.9-0.3h-0.1  L289.9,78.2c-1.1-0.3-2.3-0.3-3.4,0l-32.4,8.2c-19.4-46.3-65.2-79-118.5-79C64.9,7.4,7.3,64.9,7.3,135.6  c0,58.4,39.3,107.8,92.9,123.2v128.4c0,3.2,2.2,6,5.3,6.8l182.8,44.5c0.7,0.3,1.5,0.4,2.3,0.4c0.6,0,1.1-0.1,1.7-0.2L475.8,394  c3.1-0.8,5.3-3.6,5.3-6.8V130.4C481.1,130.1,481.1,129.7,481,129.4z M258.8,99.6l29.4-7.4l156.4,38.2l-153.9,37.5l-29.3-7.1  c1.6-8.2,2.5-16.6,2.5-25.2c0-9.3-1-18.4-2.9-27.1c0,0,0,0,0-0.1c-0.6-2.9-1.3-5.7-2.2-8.5C258.8,99.8,258.8,99.7,258.8,99.6z   M21.6,142.6h33.3c3.9,0,7-3.1,7-7s-3.1-7-7-7H21.6c3.4-57.4,49.6-103.5,107-107v33.3c0,3.9,3.1,7,7,7s7-3.1,7-7V21.6  c46.8,2.8,86,33.9,100.9,76.3c0.4,1.2,0.8,2.4,1.2,3.6c0,0.1,0.1,0.2,0.1,0.4c0.4,1.4,0.9,2.9,1.2,4.4c0,0.1,0,0.2,0.1,0.3  c0.4,1.5,0.8,3.1,1.1,4.6v0.1c1.2,5.7,2,11.5,2.4,17.4h-33.3c-3.9,0-7,3.1-7,7s3.1,7,7,7h33.3c-0.4,7.3-1.6,14.6-3.4,21.6l0,0l0,0  c-0.8,3-1.7,5.9-2.6,8.8c-0.1,0.4-0.3,0.7-0.4,1.1c-0.3,1-0.7,1.9-1.1,2.8c-0.4,0.9-0.7,1.9-1.1,2.8c-0.1,0.2-0.1,0.3-0.2,0.5  c-11.6,27.2-33.5,49-60.7,60.5c0,0,0,0-0.1,0c-1.4,0.6-2.9,1.2-4.4,1.7c-0.4,0.2-0.9,0.3-1.3,0.5c-0.7,0.2-1.3,0.5-2,0.7  c-1,0.3-2.1,0.7-3.1,1c-0.5,0.2-1,0.3-1.5,0.4c-1.1,0.3-2.2,0.6-3.3,0.9c-0.3,0.1-0.6,0.2-0.9,0.2c-1.2,0.3-2.4,0.6-3.5,0.8  c-0.3,0.1-0.6,0.1-0.9,0.2c-1.3,0.3-2.7,0.5-4,0.8c-0.3,0-0.5,0.1-0.8,0.1c-1.4,0.2-2.8,0.4-4.3,0.6l0,0c-1.4,0.2-2.9,0.3-4.3,0.5  c-0.2,0-0.5,0-0.7,0.1c-0.8,0.1-1.6,0.1-2.4,0.2v-33.3c0-3.9-3.1-7-7-7s-7,3.1-7,7v33.3c-0.1,0-0.3,0-0.4,0c-0.8,0-1.5-0.1-2.3-0.2  c-0.3,0-0.6-0.1-1-0.1c-0.8-0.1-1.5-0.1-2.3-0.2c-0.3,0-0.6-0.1-0.9-0.1c-0.8-0.1-1.6-0.2-2.4-0.3c-0.3,0-0.5-0.1-0.8-0.1  c-0.9-0.1-1.8-0.3-2.7-0.4c-0.2,0-0.3-0.1-0.5-0.1c-1-0.2-2-0.4-2.9-0.6c-0.6-0.1-1.2-0.3-1.9-0.4c-0.3-0.1-0.7-0.1-1-0.2  C61.3,235.5,24.7,193.5,21.6,142.6z M114.3,262c0.1,0,0.3,0,0.4,0.1c3.3,0.5,6.5,0.9,9.9,1.2c0.2,0,0.4,0,0.6,0.1  c1.6,0.1,3.2,0.2,4.8,0.3c0.3,0,0.6,0,0.9,0c1.6,0.1,3.2,0.1,4.9,0.1c1.6,0,3.1,0,4.7-0.1c0.3,0,0.7,0,1,0c1.5-0.1,3.1-0.2,4.6-0.3  c0.2,0,0.4,0,0.6-0.1c1.4-0.1,2.8-0.3,4.3-0.4c0.2,0,0.5,0,0.7-0.1c1.5-0.2,3-0.4,4.5-0.6c0.3,0,0.6-0.1,0.9-0.1  c1.5-0.2,2.9-0.5,4.4-0.8c0.1,0,0.1,0,0.2,0c1.4-0.3,2.9-0.6,4.3-1c0.4-0.1,0.8-0.2,1.2-0.3c1.3-0.3,2.6-0.7,3.9-1.1  c0.5-0.1,0.9-0.3,1.4-0.4c0.9-0.3,1.7-0.5,2.6-0.8c0.6-0.2,1.2-0.4,1.8-0.6c1-0.4,2.1-0.7,3.1-1.1c0.8-0.3,1.7-0.6,2.5-1  c0.3-0.1,0.5-0.2,0.8-0.3c32.4-12.9,58.6-38.6,71.8-71.7c0.4-1.1,0.8-2.1,1.2-3.2c0.1-0.4,0.3-0.8,0.4-1.1c0.5-1.3,0.9-2.7,1.4-4  c0-0.1,0-0.1,0.1-0.2l25.8,6.3v242.3l-169.4-41.3V262H114.3z M467.1,381.7L297.7,423V180.6l155.2-37.8l14.3-3.5v242.4H467.1z"></path>	<path class="st0" d="M437.7,164.7c-3.9,0-7,3.1-7,7v186.4c0,3.9,3.1,7,7,7s7-3.1,7-7V171.7C444.7,167.9,441.6,164.7,437.7,164.7z"></path>	<path class="st0" d="M401.5,194.5c-3.9,0-7,3.1-7,7v126.9c0,3.9,3.1,7,7,7s7-3.1,7-7V201.5C408.5,197.6,405.3,194.5,401.5,194.5z"></path>	<path class="st0" d="M110.3,209.3c2.6,0,5.2-1.5,6.3-4l31.3-66.7c1-2.1,0.9-4.6-0.3-6.6l-43.8-72.9c-2-3.3-6.3-4.4-9.6-2.4  c-3.3,2-4.4,6.3-2.4,9.6l41.8,69.7l-29.8,63.4c-1.6,3.5-0.1,7.7,3.4,9.3C108.3,209.1,109.3,209.3,110.3,209.3z"></path></g></svg>