<svg xmlns="http://www.w3.org/2000/svg" width="200" height="200" viewBox="0 0 200 200" fill="none"><path d="M84.3789 0.957025C85.5826 0.934683 86.7862 0.912341 88.0264 0.889322C90.5722 0.85461 93.1183 0.836301 95.6643 0.833246C99.5289 0.812673 103.382 0.691047 107.244 0.564447C127.53 0.249469 127.53 0.24947 134.338 6.54045C136.772 9.22204 138.857 12.0811 141 15C151.93 24.2947 164.683 29.2983 179 29C179.66 29.33 180.32 29.66 181 30C181.163 42.5969 181.287 55.1936 181.363 67.7914C181.399 73.6429 181.448 79.4936 181.528 85.3447C181.605 91.0053 181.646 96.6651 181.664 102.326C181.677 104.472 181.702 106.617 181.74 108.762C182.144 132.431 174.738 151.524 158.27 168.777C145.668 181.118 129.611 188.562 113.25 194.75C112.358 195.097 111.467 195.445 110.548 195.803C100.719 199.332 93.387 197.184 83.9375 193.438C83.0236 193.08 82.1096 192.722 81.168 192.353C67.3738 186.855 55.3321 180.663 44 171C43.0061 170.176 43.0061 170.176 41.9922 169.336C31.7307 160.029 19.7873 141.255 18.877 127.085C18.8779 126.357 18.8788 125.63 18.8797 124.881C18.8784 124.044 18.877 123.207 18.8756 122.344C18.8792 121.429 18.8828 120.514 18.8865 119.572C18.8863 118.605 18.8862 117.639 18.886 116.644C18.8867 113.446 18.8945 110.249 18.9023 107.051C18.9042 104.835 18.9056 102.62 18.9066 100.405C18.9105 94.5703 18.9203 88.7358 18.9313 82.9014C18.9416 76.9492 18.9461 70.9971 18.9512 65.0449C18.9619 53.3633 18.979 41.6816 19 30C22.4025 29.2874 25.5906 28.8966 29.0625 28.75C44.0249 27.441 55.5411 17.9767 66 7.99999C66.7854 6.98317 67.5707 5.96634 68.3799 4.9187C72.8668 0.463468 78.3843 1.00804 84.3789 0.957025ZM67 17C57.3848 26.3639 45.7629 32.3931 32.582 34.6601C31.8491 34.7917 31.1161 34.9232 30.361 35.0587C28.575 35.3783 26.7876 35.69 25 36C24.8603 47.4753 24.754 58.9504 24.6891 70.4264C24.658 75.7567 24.6158 81.0863 24.5474 86.4163C24.4816 91.571 24.4462 96.7253 24.4307 101.88C24.4197 103.836 24.3983 105.791 24.3656 107.746C24.1646 120.284 25.3257 129.707 31 141C31.8321 142.761 31.8321 142.761 32.6811 144.558C36.7851 153.085 42.3507 159.419 49 166C49.6342 166.656 50.2684 167.312 50.9219 167.988C61.9761 178.627 77.5045 184.329 91.7502 189.217C93.6902 189.892 95.5992 190.655 97.5 191.434C102.631 192.264 106.226 190.591 110.938 188.625C112.32 188.07 112.32 188.07 113.73 187.504C141.978 175.964 160.867 160.523 173 132C175.076 126.881 175.275 122.489 175.227 117.057C175.227 116.178 175.228 115.3 175.228 114.394C175.227 111.505 175.211 108.616 175.195 105.727C175.192 103.717 175.189 101.708 175.187 99.6988C175.179 94.4216 175.159 89.1446 175.137 83.8674C175.117 78.478 175.108 73.0886 175.098 67.6992C175.076 57.1328 175.042 46.5664 175 36C173.898 35.8022 172.796 35.6045 171.661 35.4007C170.202 35.1345 168.744 34.868 167.286 34.6013C166.198 34.4071 166.198 34.4071 165.089 34.2089C150.877 31.5936 138.926 23.3062 129 13C128.508 12.1332 128.016 11.2664 127.51 10.3733C123.517 6.59774 119.26 7.2076 113.953 7.19531C112.868 7.18104 111.783 7.16677 110.665 7.15206C108.368 7.13114 106.072 7.12359 103.775 7.12841C100.275 7.12502 96.7809 7.0472 93.2812 6.96484C91.0469 6.95376 88.8125 6.9471 86.5781 6.94531C85.0183 6.89916 85.0183 6.89916 83.4271 6.85208C74.8895 6.98572 71.934 10.3991 67 17Z" fill="#0B3851"></path><path d="M116.375 53.8125C117.48 53.9175 117.48 53.9175 118.608 54.0247C124.182 54.655 130.495 55.4633 134.583 59.6034C136.488 62.8263 136.428 65.7133 136.404 69.3513C136.411 70.0851 136.418 70.819 136.425 71.575C136.443 73.9968 136.439 76.418 136.434 78.8398C136.438 80.5261 136.443 82.2123 136.449 83.8986C136.458 87.4317 136.456 90.9647 136.446 94.4978C136.435 99.0219 136.455 103.545 136.484 108.069C136.502 111.551 136.502 115.033 136.496 118.516C136.496 120.183 136.502 121.851 136.515 123.519C136.53 125.853 136.519 128.185 136.502 130.519C136.511 131.206 136.521 131.892 136.531 132.599C136.459 137.31 135.351 139.713 132 143C123.907 146.232 114.631 146.659 106 147C105.071 147.041 104.141 147.082 103.184 147.125C96.8348 147.266 90.5642 146.79 84.25 146.188C83.4577 146.117 82.6654 146.047 81.8491 145.975C76.0497 145.367 69.6562 144.57 65.2997 140.355C63.5288 137.146 63.5726 134.22 63.5959 130.649C63.5891 129.915 63.5822 129.181 63.5751 128.425C63.5569 126.003 63.5607 123.582 63.5664 121.16C63.5618 119.474 63.5565 117.788 63.5505 116.101C63.5416 112.568 63.544 109.035 63.554 105.502C63.5654 100.978 63.5452 96.4549 63.516 91.9309C63.4977 88.4487 63.498 84.9667 63.5037 81.4845C63.5038 79.8167 63.4978 78.149 63.4854 76.4813C63.4705 74.1473 63.4811 71.8147 63.4983 69.4807C63.4838 68.4511 63.4838 68.4511 63.469 67.4007C63.5413 62.6906 64.6475 60.2859 68 57C82.6895 51.2058 100.961 52.2419 116.375 53.8125ZM74 62C77.0246 65.0246 80.6643 64.793 84.75 65.1875C85.6295 65.2735 86.5089 65.3596 87.415 65.4482C94.2211 66.026 100.929 66.05 107.75 65.75C108.653 65.7116 109.557 65.6731 110.487 65.6335C115.894 65.326 120.79 64.4782 126 63C118.797 58.4979 108.38 59.8168 100.25 59.8125C99.0512 59.8003 97.8523 59.788 96.6172 59.7754C88.8779 59.7628 81.5854 60.4611 74 62ZM71 69C71 74.94 71 80.88 71 87C79.9405 89.666 88.1553 90.4442 97.4001 90.3362C99.5634 90.3125 101.725 90.3157 103.889 90.3223C116.798 90.5289 116.798 90.5289 129 87C129 81.06 129 75.12 129 69C125.844 69.495 125.844 69.495 122.625 70C105.533 72.3152 87.9973 71.6662 71 69ZM71 94C71 99.94 71 105.88 71 112C80.9274 114.418 89.7713 115.47 100 115.375C101.876 115.392 101.876 115.392 103.789 115.41C112.672 115.383 120.376 114.1 129 112C129 106.06 129 100.12 129 94C126.484 94.33 123.967 94.66 121.375 95C104.44 96.9827 87.8627 96.2115 71 94ZM71 119C71 124.94 71 130.88 71 137C89.7955 141.903 110.205 141.903 129 137C129 131.06 129 125.12 129 119C126.071 119.33 123.142 119.66 120.125 120C103.441 121.72 87.6501 120.876 71 119Z" fill="#0B3851"></path><path d="M82.1233 15.6301C82.975 15.6012 83.8267 15.5723 84.7042 15.5426C85.6281 15.5247 86.552 15.5067 87.5039 15.4883C88.4564 15.4698 89.4088 15.4513 90.3901 15.4322C92.4118 15.4001 94.4335 15.3745 96.4553 15.3547C98.5146 15.3267 100.574 15.2791 102.632 15.2112C119.707 14.6492 119.707 14.6492 125.175 17.8699C127.391 20.124 129.178 22.4235 131 25C139.196 32.438 148.724 37.1556 159 41C160.403 41.526 161.806 42.0521 163.209 42.5784C163.922 42.8455 164.634 43.1126 165.368 43.3878C165.906 43.5899 166.445 43.7919 167 44C167.14 54.4322 167.246 64.8642 167.311 75.2972C167.342 80.1432 167.384 84.9886 167.453 89.8342C167.518 94.5222 167.554 99.2095 167.569 103.898C167.58 105.675 167.602 107.451 167.634 109.228C167.994 129.612 160.992 145.41 146.84 160.371C136.856 169.614 124.458 174.92 112 180C111.328 180.294 110.656 180.588 109.964 180.892C102.3 184.086 96.4147 183.546 88.8452 180.512C88.0094 180.157 87.1736 179.803 86.3125 179.438C85.4355 179.074 84.5584 178.71 83.6548 178.336C62.6275 169.469 47.258 157.738 37 137C36.4838 136.07 36.4838 136.07 35.9572 135.122C31.7313 126.426 32.4968 117.296 32.6094 107.867C32.6168 106.021 32.6225 104.174 32.6265 102.327C32.6417 97.4973 32.6809 92.6677 32.7253 87.8377C32.7665 82.8971 32.7846 77.9564 32.8047 73.0156C32.8474 63.3435 32.9156 53.6718 33 44C33.5374 43.7988 34.0748 43.5976 34.6285 43.3903C35.3398 43.1238 36.0511 42.8573 36.7839 42.5828C37.4863 42.3197 38.1887 42.0566 38.9124 41.7856C51.5713 37.022 70.8221 15.9722 82.1233 15.6301ZM71 32C68.6251 33.9443 66.137 35.6447 63.5625 37.3125C62.9349 37.7257 62.3073 38.1388 61.6606 38.5645C56.0671 42.1473 50.2415 44.7372 44 47C42.332 47.6634 40.6652 48.3296 39 49C38.8366 58.5023 38.7128 68.004 38.6373 77.5074C38.601 81.9219 38.552 86.3355 38.4719 90.7495C38.3949 95.0225 38.3538 99.2947 38.3359 103.568C38.3231 105.185 38.2982 106.802 38.2599 108.419C37.8333 127.213 44.9511 141.496 57.8125 155.25C66.4522 163.471 77.2042 168.291 88 173C89.5101 173.71 89.5101 173.71 91.0508 174.434C96.7049 176.873 100.341 177.468 106.137 175.25C107.554 174.631 107.554 174.631 109 174C110.277 173.478 111.554 172.957 112.832 172.438C134.631 163.397 149.312 150.803 159 129C160.827 124.356 161.244 120.508 161.227 115.526C161.227 114.803 161.228 114.081 161.228 113.336C161.227 110.966 161.211 108.596 161.195 106.227C161.192 104.576 161.189 102.926 161.187 101.275C161.179 96.9447 161.16 92.6146 161.137 88.2844C161.117 83.8602 161.108 79.436 161.098 75.0117C161.076 66.3411 161.042 57.6706 161 49C160.321 48.7299 159.641 48.4598 158.941 48.1814C158.046 47.8247 157.151 47.4679 156.228 47.1003C155.343 46.7477 154.457 46.3951 153.544 46.0318C142.873 41.7042 131.96 36.2963 124.528 27.1975C120.188 22.4128 116.056 21.2887 109.73 20.9648C107.358 20.9072 104.993 20.897 102.62 20.9226C100.199 20.9374 97.7923 20.8618 95.373 20.7793C83.9516 20.6349 78.8075 23.3359 71 32Z" fill="#0B3851"></path><path d="M123 127C123.625 128.875 123.625 128.875 124 131C120.375 134.625 114.43 134.047 109.5 134.098C108 134.091 106.5 134.079 105 134.062C103.838 134.056 103.838 134.056 102.652 134.049C100.768 134.037 98.8841 134.019 97 134C96.6178 132.344 96.286 130.675 96 129C98.3957 126.604 104.011 127.18 107.25 126.875C108.683 126.726 108.683 126.726 110.145 126.574C111.535 126.441 111.535 126.441 112.953 126.305C113.8 126.222 114.648 126.139 115.521 126.054C118.161 125.996 120.437 126.391 123 127Z" fill="#0B3851"></path><path d="M123 102C123.625 103.875 123.625 103.875 124 106C120.513 109.487 115.968 109.054 111.258 109.098C109.547 109.091 107.836 109.079 106.125 109.062C105.246 109.058 104.367 109.053 103.461 109.049C101.307 109.037 99.1536 109.019 97 109C95.875 105.25 95.875 105.25 97 103C99.0696 102.573 99.0696 102.573 101.77 102.332C102.741 102.244 103.712 102.155 104.713 102.064C106.247 101.94 106.247 101.94 107.812 101.812C109.329 101.67 109.329 101.67 110.877 101.525C119.139 100.81 119.139 100.81 123 102Z" fill="#0B3851"></path><path d="M123 77C124.125 80.75 124.125 80.75 123 83C117.633 84.3808 112.125 84.1135 106.625 84.0625C105.698 84.058 104.771 84.0535 103.816 84.0488C101.544 84.0371 99.2721 84.0207 97 84C96.375 82.125 96.375 82.125 96 80C101.43 74.5699 115.64 76.8806 123 77Z" fill="#0B3851"></path><path d="M85 98C87.4375 99.5625 87.4375 99.5625 89 102C88.9375 105.625 88.9375 105.625 88 109C85 111 85 111 81.4375 110.813C78 110 78 110 76 107C75.675 103.88 75.4885 101.853 77.125 99.125C79.9245 97.4453 81.798 97.5426 85 98Z" fill="#0B3851"></path><path d="M83.5625 73.1875C87 74 87 74 89 77C88.8125 80.5625 88.8125 80.5625 88 84C85 86 85 86 81.4375 85.8125C78 85 78 85 76 82C76.1875 78.4375 76.1875 78.4375 77 75C80 73 80 73 83.5625 73.1875Z" fill="#0B3851"></path><path d="M86 123C88.3747 125.068 88.8869 126.434 89.5 129.5C89 132 89 132 86.875 134.375C84 136 84 136 80.8125 135.937C78 135 78 135 76 132C75.6784 128.912 75.5128 126.86 77.0625 124.125C80.1407 122.338 82.5291 122.566 86 123Z" fill="#0B3851"></path></svg>