<svg xmlns="http://www.w3.org/2000/svg" width="200" height="200" viewBox="0 0 200 200" fill="none"><path d="M137 23C137.924 23.4421 138.849 23.8843 139.801 24.3398C159.576 34.4372 173.808 52.1352 181 73C188.066 96.7399 185.479 119.75 174.188 141.688C171.008 147.276 167.241 152.179 163 157C162 158.143 162 158.143 160.98 159.309C151.393 169.572 139.114 176.281 126 181C125.058 181.34 124.115 181.681 123.145 182.031C101.786 188.257 77.9391 184.578 58.6914 174.133C43.847 165.725 33.5247 154.546 25 140C24.3523 138.904 24.3523 138.904 23.6914 137.785C13.4821 118.995 12.9351 96.3283 18 76C24.5358 54.724 38.0905 36.4913 57.7393 25.6978C82.7448 12.4728 111.218 10.5179 137 23ZM43 45C27.6964 62.2312 19.9185 82.6527 21.211 105.773C23.5883 127.169 32.9519 146.609 49.648 160.357C67.6418 174.224 87.5121 179.639 110 178C115.497 177.216 120.727 175.706 126 174C127.381 173.567 127.381 173.567 128.789 173.125C147.332 166.532 161.779 151.216 170.813 134.188C179.594 115.667 181.359 95.3305 175.25 75.75C171.358 65.1904 166.308 56.5364 159 48C158.025 46.7393 158.025 46.7393 157.031 45.4531C144.988 30.908 125.367 23.0876 107 21C83.3902 19.5101 59.563 27.789 43 45Z" fill="#0B3851"></path><path d="M110 70C113.96 70 117.92 70 122 70C122 73.96 122 77.92 122 82C122.66 82 123.32 82 124 82C124 78.04 124 74.08 124 70C128.667 70 133.333 70 138 70C138.919 69.9884 139.838 69.9768 140.785 69.9648C141.867 69.9558 142.948 69.9468 144.062 69.9375C145.147 69.9259 146.231 69.9143 147.348 69.9023C150 70 150 70 151 71C151.072 72.8529 151.084 74.7083 151.062 76.5625C151.053 77.5744 151.044 78.5863 151.035 79.6289C151.024 80.4114 151.012 81.1938 151 82C151.782 81.9884 152.565 81.9768 153.371 81.9648C154.383 81.9558 155.395 81.9468 156.438 81.9375C157.447 81.9259 158.456 81.9143 159.496 81.9023C162 82 162 82 163 83C163.125 86.5 163.125 86.5 163 90C162.505 90.495 162.505 90.495 162 91C160.35 91 158.7 91 157 91C157 101.89 157 112.78 157 124C159.97 124.495 159.97 124.495 163 125C163 127.64 163 130.28 163 133C160.287 134.356 158.15 134.135 155.113 134.145C153.879 134.152 152.644 134.158 151.372 134.165C150.019 134.166 148.666 134.167 147.312 134.168C145.93 134.171 144.548 134.175 143.165 134.178C140.267 134.184 137.368 134.186 134.47 134.185C130.75 134.185 127.031 134.199 123.312 134.216C120.457 134.227 117.602 134.229 114.747 134.229C113.376 134.23 112.004 134.234 110.632 134.242C108.717 134.252 106.802 134.248 104.887 134.243C103.25 134.245 103.25 134.245 101.581 134.247C99 134 99 134 97 132C96.75 129 96.75 129 97 126C97.66 125.34 98.32 124.68 99 124C100.32 124 101.64 124 103 124C103 113.11 103 102.22 103 91C101.35 91 99.7 91 98 91C97 90 97 90 96.8125 87.0625C97 84 97 84 99 82C102.68 81.7237 106.305 81.9141 110 82C110 78.04 110 74.08 110 70ZM112 72C112 75.3 112 78.6 112 82C114.97 82 117.94 82 121 82C121 78.7 121 75.4 121 72C118.03 72 115.06 72 112 72ZM126 72C126 75.3 126 78.6 126 82C128.97 82 131.94 82 135 82C135 78.7 135 75.4 135 72C132.03 72 129.06 72 126 72ZM140 72C140 75.3 140 78.6 140 82C142.97 82 145.94 82 149 82C149 78.7 149 75.4 149 72C146.03 72 143.06 72 140 72ZM112 91C112 100.24 112 109.48 112 119C112.33 119 112.66 119 113 119C113 111.41 113 103.82 113 96C115.31 96 117.62 96 120 96C120 102.93 120 109.86 120 117C120.33 117 120.66 117 121 117C121 108.42 121 99.84 121 91C118.03 91 115.06 91 112 91ZM109 91C109 101.89 109 112.78 109 124C123.19 124 137.38 124 152 124C152 113.11 152 102.22 152 91C151.34 91.33 150.68 91.66 150 92C150.016 93.2033 150.016 93.2033 150.032 94.4309C150.073 98.0581 150.099 101.685 150.125 105.312C150.142 106.575 150.159 107.838 150.176 109.139C150.185 110.951 150.185 110.951 150.195 112.801C150.211 114.474 150.211 114.474 150.227 116.181C150 119 150 119 148 122C144.5 122.312 144.5 122.312 141 122C138.208 119.208 138.688 117.368 138.586 113.461C138.547 112.159 138.509 110.857 138.469 109.516C138.437 108.135 138.406 106.755 138.375 105.375C138.337 103.987 138.298 102.599 138.258 101.211C138.163 97.8074 138.078 94.4039 138 91C137.67 91 137.34 91 137 91C136.975 91.8022 136.95 92.6044 136.924 93.4309C136.808 97.0583 136.685 100.685 136.562 104.312C136.523 105.575 136.484 106.838 136.443 108.139C136.401 109.347 136.36 110.556 136.316 111.801C136.28 112.916 136.243 114.032 136.205 115.181C136 118 136 118 135 121C132.237 122.381 130.053 122.191 127 122C124.208 119.208 124.688 117.368 124.586 113.461C124.547 112.159 124.509 110.857 124.469 109.516C124.437 108.135 124.406 106.755 124.375 105.375C124.337 103.987 124.298 102.599 124.258 101.211C124.163 97.8074 124.078 94.4039 124 91C123.34 91 122.68 91 122 91C121.67 100.9 121.34 110.8 121 121C118.237 122.381 116.053 122.191 113 122C110.208 119.208 110.688 117.368 110.586 113.461C110.547 112.159 110.509 110.857 110.469 109.516C110.437 108.135 110.406 106.755 110.375 105.375C110.337 103.987 110.298 102.599 110.258 101.211C110.163 97.8074 110.078 94.4039 110 91C109.67 91 109.34 91 109 91ZM126 91C126 100.24 126 109.48 126 119C126.33 119 126.66 119 127 119C127 115.04 127 111.08 127 107C129.31 107 131.62 107 134 107C134 110.3 134 113.6 134 117C134.33 117 134.66 117 135 117C135 108.42 135 99.84 135 91C132.03 91 129.06 91 126 91ZM140 91C140 100.24 140 109.48 140 119C140.33 119 140.66 119 141 119C141 113.39 141 107.78 141 102C143.31 102 145.62 102 148 102C148 107.28 148 112.56 148 118C148.33 118 148.66 118 149 118C149 109.09 149 100.18 149 91C146.03 91 143.06 91 140 91ZM147 118C148 120 148 120 148 120L147 118Z" fill="#0B3851"></path><path d="M70 47C73.4916 47.6674 76.1412 49.0661 79.1875 50.875C80.0679 51.388 80.9484 51.9011 81.8555 52.4297C84 54 84 54 85 57C84.34 57.99 83.68 58.98 83 60C83.0503 61.1602 83.0503 61.1602 83.1016 62.3438C82.9301 66.8282 79.9172 69.7604 77.3359 73.2812C75.6829 75.9113 75.6829 75.9113 76.6367 78.6094C77.8393 80.7183 79.0648 82.7487 80.4375 84.75C85.4198 92.6509 87.3223 100.659 86 110C84.2141 115.05 81.9694 119.357 78 123C78.9874 123.026 79.9748 123.052 80.9922 123.078C82.9142 123.163 82.9142 123.163 84.875 123.25C86.7893 123.32 86.7893 123.32 88.7422 123.391C92 124 92 124 93.4453 125.734C94 128 94 128 94 133C74.53 133 55.06 133 35 133C36 126 36 126 38 124C39.9882 123.91 41.9778 123.831 43.968 123.826C54.3725 123.769 62.1327 121.766 69.8047 114.227C72.8756 110.392 74 106.851 74 102C72.9745 96.9111 72.0344 92.4904 68 89C67.5527 89.7825 67.1054 90.5649 66.6445 91.3711C66.04 92.383 65.4354 93.3949 64.8125 94.4375C64.2208 95.4468 63.6291 96.4562 63.0195 97.4961C61 100 61 100 58.2617 100.848C57.5154 100.898 56.769 100.948 56 101C55.67 102.32 55.34 103.64 55 105C50.7171 104.452 48.1486 102.976 44.6875 100.438C43.363 99.4765 43.363 99.4765 42.0117 98.4961C41.3479 98.0024 40.684 97.5087 40 97C40.4641 95.9791 40.4641 95.9791 40.9375 94.9375C42.1446 92.0378 42.1446 92.0378 42.1758 88.9297C42.9185 82.9715 46.9935 78.0356 50.1875 73.125C50.8481 72.0873 51.5088 71.0496 52.1895 69.9805C53.4936 67.9387 54.8083 65.9036 56.1343 63.876C57.3344 62.026 58.509 60.159 59.6509 58.2725C60.1541 57.4581 60.6573 56.6437 61.1758 55.8047C61.8183 54.7332 61.8183 54.7332 62.4739 53.6401C64.4825 51.4815 66.1278 51.3241 69 51C69.33 49.68 69.66 48.36 70 47Z" fill="#0B3851"></path><path d="M29 108C39.89 108 50.78 108 62 108C62 109.65 62 111.3 62 113C51.11 113 40.22 113 29 113C29 111.35 29 109.7 29 108Z" fill="#0B3851"></path></svg>