<svg xmlns="http://www.w3.org/2000/svg" width="200" height="200" viewBox="0 0 200 200" fill="none"><path d="M87.4922 29.9258C90.0443 30.4959 92.5003 31.2359 95 32C98.6166 32.4118 101.877 32.3483 105.367 31.2656C108.064 30.4422 110.172 29.9178 113 30C115.694 31.7557 117.87 33.7995 120.215 35.9961C123.626 38.4505 126.171 38.7361 130.312 39.25C133.945 39.8477 133.945 39.8477 137 41C138.842 43.915 139.678 46.6551 140.648 49.957C142.356 53.8024 144.22 54.7784 147.812 56.875C150.75 58.7539 150.75 58.7539 153 61C153.565 64.6316 153.313 67.8029 152.98 71.457C153.008 76.5208 155.174 79.4712 157.785 83.668C159 86 159 86 158.562 89.3125C157.523 91.1 156.478 92.8839 155.426 94.6641C153.503 99.1624 153.595 103.37 153.648 108.166C153.512 114.148 152.738 114.262 148 119C154.6 125.6 161.2 132.2 168 139C166.708 141.583 165.727 141.697 163.07 142.727C162.275 143.036 161.48 143.345 160.66 143.664C159.824 143.981 158.987 144.298 158.125 144.625C157.296 144.95 156.467 145.275 155.613 145.609C149.396 148 149.396 148 146 148C145.762 148.874 145.762 148.874 145.52 149.766C143.532 156.749 140.893 163.345 138 170C134.193 168.444 131.942 166.075 129.148 163.098C128.205 162.114 127.261 161.132 126.316 160.15C124.847 158.613 123.384 157.072 121.934 155.516C116.055 149.228 110.926 143.985 102 143C99.0929 142.957 99.0929 142.957 96.6875 143.688C95.9076 143.877 95.1277 144.066 94.3242 144.262C93.5572 144.505 92.7902 144.749 92 145C90.8592 145.356 90.8592 145.356 89.6953 145.719C86.3354 147.316 84.0837 149.577 81.5508 152.227C80.8027 152.988 80.8027 152.988 80.0396 153.765C78.4565 155.378 76.8838 157.001 75.3125 158.625C73.7296 160.256 72.1446 161.884 70.5533 163.506C69.5654 164.514 68.5825 165.527 67.6051 166.545C66.441 167.734 65.2246 168.873 64 170C63.34 170 62.68 170 62 170C60.6611 166.711 59.3298 163.418 58 160.125C57.6184 159.188 57.2369 158.251 56.8438 157.285C56.4828 156.389 56.1219 155.493 55.75 154.57C55.4148 153.743 55.0797 152.915 54.7344 152.063C54 150 54 150 54 148C53.1724 147.898 52.3448 147.796 51.4922 147.691C47.4472 146.891 43.9161 145.521 40.125 143.938C39.4366 143.656 38.7483 143.374 38.0391 143.084C36.3571 142.395 34.6782 141.698 33 141C33 138 33 138 34.6523 136.007C35.4064 135.269 36.1605 134.53 36.9375 133.77C38.1557 132.566 38.1557 132.566 39.3984 131.338C40.257 130.505 41.1155 129.671 42 128.812C42.8585 127.968 43.717 127.123 44.6016 126.252C46.7278 124.161 48.8608 122.078 51 120C50.3198 116.892 50.3198 116.892 47.9297 115.719C46 114 46 114 45.8203 111.031C45.9209 109.866 46.0214 108.701 46.125 107.5C46.3779 100.708 44.9541 96.9361 41.1172 91.4023C40 89 40 89 40.6875 86.4062C41.7765 84.4097 42.9226 82.4908 44.125 80.5625C46.2582 76.5407 45.9973 73.4276 45.6875 68.9375C45.453 62.7007 45.453 62.7007 47.918 59.543C53.7378 55 53.7378 55 57 55C57.1818 54.3245 57.3635 53.6491 57.5508 52.9531C57.8021 52.0611 58.0535 51.1691 58.3125 50.25C58.5561 49.3683 58.7998 48.4866 59.0508 47.5781C60.0724 44.8033 60.889 43.0785 63 41C65.8203 40.2344 65.8203 40.2344 69.125 39.75C74.3565 38.7361 77.0012 37.5321 80.6875 33.6875C84.3352 30.0198 84.3352 30.0198 87.4922 29.9258ZM83.3125 41.25C82.6512 41.9113 81.9899 42.5726 81.3086 43.2539C78.4819 45.3919 76.3562 45.6668 72.875 46.1875C68.9481 46.965 67.4888 47.293 65.1797 50.6328C64.2217 52.7635 63.3103 54.9158 62.4453 57.0859C60.847 60.3084 59.6935 61.1948 56.625 62.9375C54.4966 64.1646 54.4966 64.1646 53 66C52.6204 69.3091 52.8214 72.3686 53.0703 75.6875C52.9908 79.432 52.1417 81.1076 50.1875 84.25C48.7261 86.5894 48.7261 86.5894 48 89C48.9026 91.5363 50.1971 93.3885 51.75 95.582C53.3519 98.6807 53.0327 100.623 52.6875 104.062C52.4232 107.124 52.4232 107.124 53 110C55.2778 112.457 57.6872 114.125 60.4688 115.984C63.3242 118.258 64.279 120.044 65.6875 123.375C67.3957 127.468 67.3957 127.468 71.4375 129.5C72.6131 129.665 73.7888 129.83 75 130C79.1704 131.043 81.347 132.25 84.3125 135.25C86.82 137.583 86.82 137.583 90.0938 137.91C91.604 137.503 93.1056 137.063 94.5977 136.594C99.526 135.376 104.973 136.246 109.688 138C112.055 138.272 112.055 138.272 113.395 136.609C114.189 135.689 114.189 135.689 115 134.75C118.29 131.04 120.701 130.482 125.562 129.812C130.549 128.944 130.549 128.944 133.891 125.367C134.842 123.239 135.742 121.086 136.59 118.914C138.159 115.671 139.3 114.806 142.375 113.062C144.503 111.835 144.503 111.835 146 110C146.38 106.691 146.179 103.631 145.93 100.312C146.009 96.568 146.858 94.8924 148.812 91.75C150.273 89.4075 150.273 89.4075 151 87C150.095 84.4969 148.794 82.6609 147.258 80.4922C145.608 77.2232 145.916 74.9361 146.188 71.3125C146.488 66.701 146.488 66.701 144.309 62.8359C140.531 59.9123 140.531 59.9123 136 59C135.807 58.3851 135.613 57.7702 135.414 57.1367C135.023 55.9244 135.023 55.9244 134.625 54.6875C134.37 53.887 134.115 53.0865 133.852 52.2617C133.012 49.7728 133.012 49.7728 131 47C128.127 46.1954 128.127 46.1954 124.812 45.6875C120.273 44.7717 117.512 44.0713 114.312 40.6875C112.814 39.0491 112.814 39.0491 111 38C108.308 38.1054 106.01 38.6847 103.418 39.4062C98.9457 40.5045 94.8892 39.2587 90.5625 38C86.3952 38 86.1402 38.469 83.3125 41.25ZM56.6931 125.193C56.1537 125.738 55.6143 126.283 55.0586 126.844C54.4753 127.43 53.892 128.017 53.291 128.621C52.3735 129.551 52.3735 129.551 51.4375 130.5C50.5142 131.43 50.5142 131.43 49.5723 132.379C48.0459 133.917 46.5227 135.458 45 137C47.7005 138.8 50.0668 139.934 53.0625 141.125C53.9404 141.478 54.8182 141.831 55.7227 142.195C57.9117 143.111 57.9117 143.111 60 143C60.0825 143.639 60.165 144.279 60.25 144.938C61.2952 149.205 63.1409 153.031 65 157C70.6222 152.335 76.1601 147.487 81 142C81 141.34 81 140.68 81 140C76.5952 137.063 73.6072 135.858 68.3125 135.375C65.4688 134.969 65.4688 134.969 63 134C60.8633 130.858 59.8496 127.684 59 124C57.8281 123.888 57.8281 123.888 56.6931 125.193ZM141 124C140.862 124.615 140.724 125.23 140.582 125.863C139.691 128.7 138.856 130.658 137 133C133.718 134.237 130.662 134.799 127.191 135.27C123.549 136.103 121.72 137.493 119 140C120.321 142.932 121.746 144.987 124.039 147.234C124.619 147.808 125.199 148.382 125.797 148.973C126.4 149.559 127.003 150.146 127.625 150.75C128.236 151.352 128.847 151.954 129.477 152.574C130.98 154.054 132.489 155.528 134 157C136.792 155.604 137.002 153.996 138.125 151.125C138.478 150.241 138.831 149.356 139.195 148.445C140.156 145.954 140.156 145.954 140 143C140.664 142.807 141.328 142.613 142.012 142.414C148.598 140.472 148.598 140.472 155 138C150.905 133.106 146.736 128.293 142 124C141.67 124 141.34 124 141 124Z" fill="#0B3851"></path><path d="M121.238 53.2852C130.459 59.7127 137.888 68.7762 140 80C140.815 92.7324 140.171 103.796 131.758 114.09C123.741 122.801 115.667 128.383 103.652 129.238C90.6993 129.497 80.6247 127.07 71 118C62.8693 109.96 58.7473 100.247 58.625 88.75C58.8076 77.1796 62.8728 67.4197 70.8828 59.0274C84.6866 46.2792 104.785 43.8385 121.238 53.2852ZM73.2773 67.0703C67.1625 75.6942 64.6095 84.419 66 95C68.7442 104.842 73.6421 112.703 82.5625 117.875C91.848 122.748 101.615 123.696 111.688 120.563C120.865 116.744 127.149 110.158 131.16 101.164C134.19 93.3575 134.338 83.5641 131.5 75.625C126.796 65.7052 119.174 59.751 109.117 55.8946C95.9308 52.1105 82.0133 56.5713 73.2773 67.0703Z" fill="#0B3851"></path><path d="M99 56C102.148 58.9393 104.455 61.9857 106.75 65.625C107.364 66.5866 107.977 67.5483 108.609 68.5391C110 71 110 71 110 73C110.69 73.1096 111.379 73.2191 112.09 73.332C118.294 74.3788 124.1 75.8147 130 78C128.527 80.6763 127.183 82.8264 124.957 84.9375C120.684 89.0473 118.805 92.4052 118.48 98.3203C118.414 103.557 118.625 108.777 119 114C117.427 113.549 115.856 113.092 114.285 112.633C113.41 112.379 112.535 112.125 111.633 111.864C109.117 111.038 106.822 110.019 104.438 108.875C96.7633 106.428 88.8124 111.782 82 115C81.67 115 81.34 115 81 115C81.0628 114.437 81.1257 113.874 81.1904 113.294C82.6169 100.856 82.6169 100.856 78.3281 89.5586C76.239 87.0508 73.984 84.7727 71.625 82.5195C70.7588 81.6881 69.8925 80.8566 69 80C69 79.34 69 78.68 69 78C71.9572 77.1625 74.9159 76.3307 77.875 75.5C78.7168 75.2615 79.5585 75.023 80.4258 74.7773C81.2314 74.5518 82.0371 74.3262 82.8672 74.0938C83.9826 73.7795 83.9826 73.7795 85.1206 73.459C87 73 87 73 89 73C89.2565 72.2936 89.513 71.5872 89.7773 70.8594C91.1051 67.7542 92.7283 65.0837 94.5625 62.25C95.1825 61.2858 95.8026 60.3216 96.4414 59.3281C98 57 98 57 99 56ZM99 69C98.1041 70.2631 97.2578 71.5616 96.4375 72.875C95.9825 73.5943 95.5274 74.3136 95.0586 75.0547C93.8407 76.9237 93.8407 76.9237 94 79C89.71 79.99 85.42 80.98 81 82C81.9694 83.2994 82.9388 84.5987 83.9375 85.9375C84.4828 86.6684 85.028 87.3993 85.5898 88.1523C86.8691 89.9134 86.8691 89.9134 88 91C88.0726 93.1864 88.0837 95.375 88.0625 97.5625C88.0535 98.76 88.0445 99.9576 88.0352 101.191C88.0236 102.118 88.012 103.045 88 104C88.5801 103.783 89.1602 103.567 89.7578 103.344C98.0303 100.395 102.925 100.659 111 104C111.003 103.082 111.005 102.164 111.008 101.219C111.266 93.0395 112.067 87.8424 118 82C117.203 81.8157 116.407 81.6313 115.586 81.4414C109.63 79.8112 105.737 78.5931 102.312 73.25C101.539 71.8349 100.767 70.4188 100 69C99.67 69 99.34 69 99 69Z" fill="#0B3851"></path></svg>