<svg xmlns="http://www.w3.org/2000/svg" width="200" height="200" viewBox="0 0 200 200" fill="none"><path d="M25.4407 45.746C26.8034 45.7376 26.8034 45.7376 28.1938 45.729C29.6853 45.735 29.6853 45.735 31.207 45.7412C32.7805 45.736 32.7805 45.736 34.3858 45.7306C37.8615 45.7218 41.3369 45.7276 44.8125 45.7344C47.2224 45.733 49.6323 45.7311 52.0422 45.7286C57.0962 45.7256 62.1501 45.7299 67.2041 45.7393C73.691 45.7507 80.1778 45.7441 86.6647 45.7321C91.642 45.7249 96.6192 45.7272 101.597 45.7324C103.989 45.7337 106.381 45.7321 108.773 45.7274C112.113 45.7224 115.453 45.7301 118.793 45.7412C119.787 45.7372 120.782 45.7331 121.806 45.729C122.715 45.7346 123.623 45.7402 124.559 45.746C125.349 45.7468 126.139 45.7475 126.953 45.7483C129 46 129 46 132 48C132 51.63 132 55.26 132 59C144.87 59 157.74 59 171 59C173.31 63.62 175.62 68.24 178 73C178.947 74.6474 179.895 76.2949 180.871 77.9922C187.989 91.05 188.891 102.7 188.75 117.313C188.741 118.221 188.733 119.13 188.724 120.066C188.687 122.666 188.625 125.264 188.547 127.863C188.525 128.655 188.504 129.447 188.482 130.262C188.242 135.758 188.242 135.758 186 138C183.398 138.195 183.398 138.195 180.375 138.125C179.372 138.107 178.369 138.089 177.336 138.07C176.565 138.047 175.794 138.024 175 138C174.938 139.011 174.876 140.021 174.812 141.063C173.918 147.115 170.608 150.802 165.812 154.375C159.97 157.302 153.595 157.711 147.312 156.063C141.239 153.726 137.46 148.857 134.562 143.188C134 141 134 141 134 138C115.19 138 96.38 138 77 138C76.67 139.98 76.34 141.96 76 144C72.8105 149.788 68.876 153.783 62.75 156.375C55.3643 157.606 48.9909 156.949 42.7617 152.59C39.757 149.878 37.4859 146.772 36 143C35.875 140.25 35.875 140.25 36 138C34.8682 138.023 33.7364 138.046 32.5703 138.07C31.0885 138.089 29.6068 138.107 28.125 138.125C27.3786 138.142 26.6323 138.159 25.8633 138.176C23.9081 138.193 21.9526 138.103 20 138C18 136 18 136 17.7729 133.662C17.7887 132.232 17.7887 132.232 17.8047 130.773C17.8144 129.227 17.8144 129.227 17.8242 127.648C17.841 126.568 17.8577 125.488 17.875 124.375C17.884 123.287 17.893 122.199 17.9023 121.078C17.926 118.385 17.9589 115.693 18 113C17.1956 113.021 16.3913 113.041 15.5625 113.063C13 113 13 113 12 112C11.875 109.5 11.875 109.5 12 107C12.495 106.505 12.495 106.505 13 106C14.65 106 16.3 106 18 106C18 98.08 18 90.16 18 82C15.69 81.67 13.38 81.34 11 81C10.8125 78.625 10.8125 78.625 11 76C14 74 14 74 18 74C17.9843 73.2229 17.9686 72.4457 17.9524 71.645C17.8902 68.1384 17.8511 64.6319 17.8125 61.125C17.7874 59.9017 17.7622 58.6784 17.7363 57.418C17.7267 56.2514 17.717 55.0848 17.707 53.8828C17.6913 52.804 17.6756 51.7253 17.6594 50.6138C17.7718 49.7512 17.8842 48.8887 18 48C21.1442 45.9039 21.8599 45.7495 25.4407 45.746ZM25 54C25 60.6 25 67.2 25 74C28.1054 74.0909 28.1054 74.0909 31.2734 74.1836C33.2757 74.2462 35.278 74.3088 37.2803 74.3723C38.6731 74.4157 40.066 74.4573 41.459 74.4973C43.4598 74.555 45.4604 74.6192 47.4609 74.6836C48.6654 74.7203 49.8699 74.7569 51.1108 74.7947C54 75 54 75 56 76C55.67 77.65 55.34 79.3 55 81C45.1 81.33 35.2 81.66 25 82C25 89.92 25 97.84 25 106C29.95 106.33 34.9 106.66 40 107C40 108.65 40 110.3 40 112C35.05 112.33 30.1 112.66 25 113C25 118.94 25 124.88 25 131C28.63 131 32.26 131 36 131C36.6806 129.618 37.3612 128.236 38.0625 126.813C40.8852 121.72 44.2 118.18 49.9492 116.395C56.2493 115.183 61.5746 115.553 67.2109 118.73C71.8094 121.994 73.8954 125.738 76 131C92.17 131 108.34 131 125 131C125 105.59 125 80.18 125 54C92 54 59 54 25 54ZM132 66C132 87.45 132 108.9 132 131C132.99 131 133.98 131 135 131C135.219 130.481 135.438 129.961 135.664 129.426C138.448 123.304 141.393 120.047 147.312 116.688C154.118 114.947 159.777 115.688 166.059 118.801C170.74 121.692 172.744 126.15 175 131C176.98 131 178.96 131 181 131C181.125 126.644 181.215 122.289 181.275 117.932C181.3 116.455 181.333 114.978 181.377 113.502C181.656 103.83 180.826 96.6721 176 88C165.11 87.505 165.11 87.505 154 87C154 85.35 154 83.7 154 82C160.27 81.67 166.54 81.34 173 81C172.031 78.7106 171.061 76.4213 170.062 74.0625C169.758 73.3407 169.454 72.6189 169.141 71.8753C167.942 68.7074 167.942 68.7074 166 66C163.479 65.9115 160.985 65.8847 158.465 65.9024C157.797 65.9034 157.13 65.9044 156.443 65.9054C153.941 65.9106 151.439 65.9246 148.938 65.9375C143.348 65.9581 137.759 65.9788 132 66ZM45.6875 127C42.8642 130.346 42.6596 133.644 42.7148 137.938C43.2922 142.113 45.784 144.913 48.8359 147.641C52.6563 150.04 56.6465 149.612 61 149C64.7627 147.221 66.518 145.669 68.9375 142.313C70.3497 137.91 70.1921 134.448 69 130C66.3264 125.27 63.0722 123.721 58 122C52.7476 122 49.641 123.581 45.6875 127ZM143.625 127.125C141.401 131.06 140.675 134.487 141 139C142.219 142.727 144.244 145.33 147.188 147.938C151.207 149.456 154.759 149.673 159 149C163.384 146.808 166.131 144.569 168 140C168.541 135.134 168.542 133.027 166.25 128.688C163.149 124.984 161.403 123.37 156.688 122.125C151.204 121.939 147.694 123.485 143.625 127.125Z" fill="#0B3851"></path><path d="M108 72C115.331 76.7727 119.671 83.2205 121.629 91.7344C122.801 100.468 120.978 107.604 115.938 114.813C110.993 120.743 104.544 123.769 97 125C88.6073 125.658 81.5856 123.721 75.125 118.313C69.0994 112.542 65.8953 105.826 65.6875 97.4375C65.7985 89.0719 67.9589 82.8417 73.625 76.625C83.1204 67.9545 96.4762 66.0795 108 72ZM80 81C79.34 81.99 78.68 82.98 78 84C79.98 84.99 81.96 85.98 84 87C84.99 86.2575 85.98 85.515 87 84.75C87.5569 84.3324 88.1137 83.9147 88.6875 83.4844C90.4416 81.8308 90.4416 81.8308 90 78C92.31 78 94.62 78 97 78C97.0619 78.7631 97.1238 79.5263 97.1875 80.3125C97.7334 83.2138 97.7334 83.2138 100.438 84.4375C103.77 86.4696 104.096 88.3018 105 92C98.25 91.25 98.25 91.25 96 89C92.9007 89.322 92.9007 89.322 90 90C90 90.66 90 91.32 90 92C90.7129 92.2192 91.4257 92.4383 92.1602 92.6641C97.9134 94.5689 102.107 96.4839 106.496 100.672C108.462 102.408 110.506 103.244 113 104C114.767 102.233 114.297 99.8372 114.375 97.4375C114.308 90.3931 112.324 86.4844 107.543 81.4727C103.328 77.6357 99.2926 76.3086 93.75 75.5625C88.5812 76.1655 84.3538 78.1744 80 81ZM74 90C72.0037 95.9888 72.4889 100.534 75.0625 106.188C78.1206 111.851 81.8196 114.94 88 117C95.2001 117.747 100.577 117.535 106.574 113.289C108.133 112.037 108.133 112.037 109 110C107.02 109.01 105.04 108.02 103 107C103 107.66 103 108.32 103 109C101.02 109.66 99.04 110.32 97 111C97 112.65 97 114.3 97 116C94.69 116 92.38 116 90 116C90.1238 115.258 90.2475 114.515 90.375 113.75C90.2512 112.843 90.1275 111.935 90 111C88.0131 109.647 86.0125 108.314 84 107C83.125 104.25 83.125 104.25 83 102C87.3177 102.508 91.033 103.197 95 105C95.99 104.01 96.98 103.02 98 102C97.2498 101.72 96.4995 101.441 95.7266 101.152C89.1394 98.5723 83.5998 95.6348 77.9609 91.3555C76.1231 89.8105 76.1231 89.8105 74 90Z" fill="#0B3851"></path><path d="M43.3218 58.7527C44.2914 58.7542 45.261 58.7556 46.26 58.7571C47.3578 58.754 48.4555 58.7509 49.5866 58.7477C50.7762 58.7549 51.9658 58.7621 53.1914 58.7695C55.0148 58.7702 55.0148 58.7702 56.875 58.7709C59.4482 58.7739 62.0213 58.7818 64.5945 58.7942C68.5494 58.8124 72.504 58.8147 76.459 58.8144C78.9531 58.8194 81.4473 58.8252 83.9414 58.832C85.133 58.8331 86.3247 58.8342 87.5524 58.8354C89.1943 58.845 89.1943 58.845 90.8694 58.8547C91.8382 58.8585 92.807 58.8623 93.8052 58.8663C96 59 96 59 97 60C97.125 62.5 97.125 62.5 97 65C96 66 96 66 93.7917 66.1202C92.8169 66.118 91.842 66.1158 90.8376 66.1135C89.7366 66.1134 88.6355 66.1134 87.5011 66.1133C86.3032 66.1081 85.1053 66.103 83.8711 66.0976C82.6517 66.0962 81.4324 66.0948 80.176 66.0934C76.2632 66.0877 72.3504 66.0752 68.4375 66.0625C65.7923 66.0575 63.1471 66.0529 60.502 66.0488C54.0013 66.0378 47.5006 66.021 41 66C40.34 64.35 39.68 62.7 39 61C41 59 41 59 43.3218 58.7527Z" fill="#0B3851"></path><path d="M35.0798 89.7477C36.1096 89.7585 36.1096 89.7585 37.1602 89.7695C37.8652 89.77 38.5703 89.7704 39.2967 89.7709C40.7871 89.7739 42.2775 89.7818 43.7678 89.7942C46.0569 89.8124 48.3456 89.8147 50.6348 89.8144C52.0807 89.8194 53.5267 89.8252 54.9727 89.832C56.0054 89.8337 56.0054 89.8337 57.0591 89.8354C61.8839 89.8839 61.8839 89.8839 63 91C63.125 93.5 63.125 93.5 63 96C62 97 62 97 58.8572 97.1135C57.466 97.1134 56.0748 97.1077 54.6836 97.0976C53.9525 97.0962 53.2215 97.0948 52.4683 97.0934C50.1246 97.0877 47.7811 97.0752 45.4375 97.0625C43.8522 97.0575 42.2669 97.0529 40.6816 97.0488C36.7877 97.0378 32.8939 97.0205 29 97C28.375 94.625 28.375 94.625 28 92C30.4408 89.5592 31.7488 89.7638 35.0798 89.7477Z" fill="#0B3851"></path><path d="M159 128C161.991 130.542 162.842 132.157 163.562 136C162.787 140.136 161.387 141.55 158 144C154.002 144.631 151.993 144.679 148.625 142.375C146.615 139.437 146.073 137.56 146 134C148.816 127.965 152.499 126.869 159 128ZM154 135C154.33 135.66 154.66 136.32 155 137C155.33 136.34 155.66 135.68 156 135C155.34 135 154.68 135 154 135Z" fill="#0B3851"></path><path d="M58.0977 127.578C61.0899 128.242 62.3083 129.496 64 132C65.0931 135.045 65.1218 136.564 64.25 139.688C63 142 63 142 60 144C55.5982 144.571 53.7016 144.508 50.0625 141.875C48 139 48 139 47.4375 136C48.6533 129.516 51.7267 127.151 58.0977 127.578ZM55 135C55 135.66 55 136.32 55 137C55.66 137 56.32 137 57 137C57 136.34 57 135.68 57 135C56.34 135 55.68 135 55 135Z" fill="#0B3851"></path></svg>